<svg xmlns="http://www.w3.org/2000/svg" width="52" height="52" viewBox="0 0 64 64" version="1.1"><path d="M 9.455 46.455 C 6.207 49.702, 6.207 54.298, 9.455 57.545 C 14.415 62.506, 23 58.991, 23 52 C 23 47.889, 19.111 44, 15 44 C 13.052 44, 11.002 44.907, 9.455 46.455 M 43.455 46.455 C 41.907 48.002, 41 50.052, 41 52 C 41 53.948, 41.907 55.998, 43.455 57.545 C 45.002 59.093, 47.052 60, 49 60 C 55.991 60, 59.506 51.415, 54.545 46.455 C 52.998 44.907, 50.948 44, 49 44 C 47.052 44, 45.002 44.907, 43.455 46.455" stroke="none" fill="#c68863" fill-rule="evenodd"/><path d="M 22.054 3.728 C 19.523 4.621, 15.609 7.296, 12.971 9.934 C 5.495 17.409, 3.091 28.040, 6.567 38.243 C 8.134 42.842, 8.134 42.842, 13.372 42.301 C 17.931 41.831, 18.980 42.079, 21.466 44.217 C 23.514 45.979, 24.489 47.923, 24.911 51.087 C 25.500 55.500, 25.500 55.500, 32 55.500 C 38.500 55.500, 38.500 55.500, 39.089 51.087 C 39.511 47.923, 40.486 45.979, 42.534 44.217 C 45.020 42.079, 46.069 41.831, 50.628 42.301 C 55.866 42.842, 55.866 42.842, 57.433 38.243 C 63.609 20.117, 50.499 1.784, 31.572 2.079 C 28.782 2.122, 24.499 2.864, 22.054 3.728" stroke="none" fill="#e4ac8c" fill-rule="evenodd"/><path d="M 22.703 1.382 C 13.348 4.868, 6.336 12.351, 3.864 21.485 C 2.450 26.707, 3.273 36.693, 5.466 40.934 C 6.832 43.575, 6.964 44.783, 6.097 46.686 C 2.726 54.085, 7.218 62, 14.788 62 C 17.304 62, 19.716 61.225, 21.454 59.857 C 25.426 56.733, 38.574 56.733, 42.546 59.857 C 46.702 63.126, 52.395 62.759, 56.176 58.978 C 58.937 56.217, 59.145 55.548, 58.585 51.228 C 57.607 43.687, 57.670 42.748, 59.482 38 C 63.125 28.454, 59.406 13.885, 51.663 7.369 C 43.919 0.853, 31.184 -1.780, 22.703 1.382 M 22.054 3.728 C 19.523 4.621, 15.609 7.296, 12.971 9.934 C 5.495 17.409, 3.091 28.040, 6.567 38.243 C 8.134 42.842, 8.134 42.842, 13.372 42.301 C 17.931 41.831, 18.980 42.079, 21.466 44.217 C 23.514 45.979, 24.489 47.923, 24.911 51.087 C 25.500 55.500, 25.500 55.500, 32 55.500 C 38.500 55.500, 38.500 55.500, 39.089 51.087 C 39.511 47.923, 40.486 45.979, 42.534 44.217 C 45.020 42.079, 46.069 41.831, 50.628 42.301 C 55.866 42.842, 55.866 42.842, 57.433 38.243 C 63.609 20.117, 50.499 1.784, 31.572 2.079 C 28.782 2.122, 24.499 2.864, 22.054 3.728 M 9.455 46.455 C 6.207 49.702, 6.207 54.298, 9.455 57.545 C 14.415 62.506, 23 58.991, 23 52 C 23 47.889, 19.111 44, 15 44 C 13.052 44, 11.002 44.907, 9.455 46.455 M 43.455 46.455 C 41.907 48.002, 41 50.052, 41 52 C 41 53.948, 41.907 55.998, 43.455 57.545 C 45.002 59.093, 47.052 60, 49 60 C 55.991 60, 59.506 51.415, 54.545 46.455 C 52.998 44.907, 50.948 44, 49 44 C 47.052 44, 45.002 44.907, 43.455 46.455" stroke="none" fill="#040404" fill-rule="evenodd"/></svg>